# xmcd CD database file
#
# Track frame offsets:
#	150
#	12012
#	26028
#	40651
#	53009
#	67244
#	81207
#	92636
#	107926
#	122599
#	136559
#	151598
#	167556
#	179387
#	194978
#	210297
#	225066
#	239864
#
# Disc length: 3373 seconds
#
# Revision: 0
# Processed by: cddbd v1.5.1PL0 Copyright (c) Steve Scherf et al.
# Submitted via: CDex 1.51
#
DISCID=e30d2b12
DTITLE=Billie Holiday - Lover Come Back To Me CD3
DYEAR=2004
DGENRE=Jazz
TTITLE0=No Regrets
TTITLE1=Willow Weep For Me
TTITLE2=Pennies From Heaven
TTITLE3=Gimmie A Pigfoot (And A Bottle Of Beer)
TTITLE4=God Bless The Child
TTITLE5=Sun Showers
TTITLE6=Riffin' The Scotch
TTITLE7=Don't Explain
TTITLE8=Our Love Is Different
TTITLE9=On The Sentimental Side
TTITLE10=My Sweet Hunk O'Trash
TTITLE11=Do Nothing 'till You Hear From Me
TTITLE12=Sentimental and Melancholy
TTITLE13=You Turned The Tables On Me
TTITLE14=Lover Come Back To Me
TTITLE15=Now Or Never
TTITLE16=Lover Man
TTITLE17=Swing, Brother, Swing
EXTD=YEAR: 2004
EXTT0=
EXTT1=
EXTT2=
EXTT3=
EXTT4=
EXTT5=
EXTT6=
EXTT7=
EXTT8=
EXTT9=
EXTT10=
EXTT11=
EXTT12=
EXTT13=
EXTT14=
EXTT15=
EXTT16=
EXTT17=
PLAYORDER=
